<svg xmlns="http://www.w3.org/2000/svg" viewBox="0 0 505 505"><defs><style>.cls-1{fill:#f81818;}.cls-2{fill:#fff;}</style></defs><title>favicon</title><g id="Layer_2" data-name="Layer 2"><g id="Layer_1-2" data-name="Layer 1"><rect class="cls-1" width="505" height="505" rx="45.06" ry="45.06"/><path class="cls-2" d="M344.59,356.46c-6,24.5-20,43-40.5,57-17.5,12-37,19-57.5,23a174.52,174.52,0,0,1-36,2.5c-18.5,1-37-2-55-7.5a97.68,97.68,0,0,1-53.5-40,163.88,163.88,0,0,1-26-68.5c0-2-.5-4-.5-6,0-5.5,1-7.5,6-9a116.75,116.75,0,0,1,12.5-3.5,269,269,0,0,1,48.5-6.5h11c9,.5,10,1.5,12.5,10a61.92,61.92,0,0,0,10.5,22.5c8,11,18.5,18.5,32,21.5,8.5,2,16.5.5,24.5-3.5,10.5-5,13.5-14,9-25-2.5-6.5-7-12.5-12-17.5-11.5-11.5-24-21-38.5-27.5-11-5-22-10-32.5-15.5-13-6-25-13-35.5-22-13-11.5-22-25.5-24.5-42.5-6.5-44.5,6-81.5,42.5-109a112.44,112.44,0,0,1,58-22.5c49-5.5,90.5,9.5,123,47a106.3,106.3,0,0,1,22.5,41,63.25,63.25,0,0,1,1.5,14c.5,5-2,8.5-7,10-4.5,1-9,2.5-13.5,3a189.29,189.29,0,0,1-44.5.5c-3-.5-6-1.5-9-2-5.5-1-9.5-4-11.5-9.5-5-12.5-15.5-19-28.5-20.5-5-1-9.5,0-14,1.5-9,2.5-15.5,11.5-11,23,2.5,7,7.5,13,13.5,17.5,7.5,6,16,10,25.5,13l31,9c9,3,18,6.5,26,11.5,17,9.5,29.5,23,36.5,41.5A150.22,150.22,0,0,1,344.59,356.46Zm-218-19.5c-2-7-4.5-14-7-21a7.49,7.49,0,0,0-9-4,8.56,8.56,0,0,0-6,8c.5,3.5,6,19,8,22a8.32,8.32,0,0,0,9.5,3.5C125.59,344,128.09,340.46,126.59,337Zm36,42.5a6.15,6.15,0,0,0-2.5-5L143.59,361c-3-2.5-7-2-10,.5-3,3-3.5,7-.5,11a67.47,67.47,0,0,0,17.5,14,7.08,7.08,0,0,0,5.5.5C159.59,387,162.59,383,162.59,379.46Zm-6.5-203c-.5-6.5-1.5-13.5-2.5-20a7.41,7.41,0,0,0-7-6.5,8.08,8.08,0,0,0-8,7,24.34,24.34,0,0,0-.5,6c0,5.5,1.5,11,3,16.5,1.5,4.5,5,6.5,9,5.5C154.09,184.46,156.59,181,156.09,176.46Zm4-43h2c7-5,13.5-9.5,20-14.5,2.5-2,2.5-5,1-7.5-1.5-3-5-5.5-8-4.5a43.68,43.68,0,0,0-22,15,7.67,7.67,0,0,0,0,8C154.59,132.46,157.09,133.46,160.09,133.46Zm29.5,82c-5.5-6.5-12.5-11-19-15.5a7.43,7.43,0,0,0-3-.5c-6,0-10,6.5-7,11a44.05,44.05,0,0,0,21,16c1,.5,2.5,0,3.5,0C190.09,225.46,193.09,219,189.59,215.46ZM207.09,391a141.62,141.62,0,0,0-18.5-4.5,9,9,0,0,0-9.5,5.5c-1,4,1,7.5,5,9.5,6.5,2.5,13,3.5,19,4.5q9.75.75,10.5-6C214.59,395.46,212.09,392,207.09,391Zm3-278c3,0,6-.5,9.5-.5,3.5-.5,7.5-.5,11.5-1a7.58,7.58,0,0,0,0-15,85,85,0,0,0-22.5,1c-4.5,1-6.5,4.5-6,9A7.57,7.57,0,0,0,210.09,113Zm29.5,133a9,9,0,0,0-4.5-8c-6-2.5-11.5-5.5-17-8-5-2-9-.5-11,3.5s-.5,8,4,11l16,7.5a12.68,12.68,0,0,0,6,1C236.59,253,239.59,249.46,239.59,246Zm27,141.5c-1.5-3.5-5-5-9-4-6.5,2.5-13,5-19.5,8-3.5,1.5-5,5-4,9,1,3.5,4,5.5,8,5.5,5,0,19-6,22.5-9C267.59,394.46,268.59,390.46,266.59,387.46Zm-9-268.5c5.5,5.5,12,10,18.5,15,.5.5,2,.5,2.5,1,6-.5,10-7,7-11.5-5-7.5-12.5-13-21-17a5.64,5.64,0,0,0-5.5,1.5C255.09,110.46,254.09,116,257.59,119Zm19.5,160a7.31,7.31,0,0,0,10-3c2-3.5,1.5-7.5-2-10.5-5.5-4-11.5-7-17-10.5a6.72,6.72,0,0,0-4-1c-4,0-7,2-8,5a7.62,7.62,0,0,0,2.5,8.5C264.59,271.46,270.59,275.46,277.09,279Zm21,65a7.81,7.81,0,0,0-6,3c-4,5.5-8,11.5-11.5,17.5a6.5,6.5,0,0,0,1.5,9.5,7.25,7.25,0,0,0,10.5,0,65.64,65.64,0,0,0,13-20C307.09,349.46,303.59,344.46,298.09,344Zm-6-188.5c1.5,5.5,3.5,10.5,8,14.5,2.5,2.5,8,2,10.5-1.5,3-4,1-8-1-12s-4-8.5-9.5-9C296.09,147,291.09,151.46,292.09,155.46Zm23,157a128.41,128.41,0,0,1-3-14l-1.5-3c-2-4-6-6-10-4.5a8,8,0,0,0-4.5,8.5c.5,5.5,2.5,11,3,16.5.5,7,4,10,9,9.5C312.59,325,315.09,321.46,315.09,312.46Z"/><path class="cls-2" d="M428.55,423.32c-1.51,4.4-54.56,4-56.07,0s-1.91-44.42,0-46c2.21-2,55.26-4.8,56.07,0C429.25,382.5,430.06,418.92,428.55,423.32Z"/></g></g></svg>