<svg xmlns="http://www.w3.org/2000/svg" viewBox="0 0 192.3 61.56"><defs><style>.cls-1{fill:#f8b818;}</style></defs><title>ribbon</title><g id="Layer_2" data-name="Layer 2"><g id="Layer_1-2" data-name="Layer 1"><path class="cls-1" d="M192.25,29.77a1.32,1.32,0,0,1-.68-1.08c0-.32-.16-.58-.44-.62a.35.35,0,0,0-.31.19c0,.41-.39.62-.33,1.07l0,0a5.66,5.66,0,0,0,0-.92c-.12-.63-.17-1.13.58-1,.45.08.76-.34.68-1a.54.54,0,0,0,0-.68,1.61,1.61,0,0,1-.17-.43.65.65,0,0,0-.7-.52c-.26,0-.55-.09-.4-.48a11.4,11.4,0,0,0,.21-1.92,2.91,2.91,0,0,1,.49-1.15.71.71,0,0,0,0-.59c-.36.23-.57,0-.63-.45.18-.2-.48-.52.1-.76.31-.13.09-.94-.33-1.11l-.06.24c-.41,0-.63.56-1,.68-.17-.08-.29-.26-.45-.35s-.24-.13-.17-.34.09-.48-.12-.64c-.38.14-.44-.67-.82-.53-.08-.33-.74-.18-.41-.84-.15-.6.29-.54.47-.76a1.46,1.46,0,0,0,.11-.78,1.57,1.57,0,0,0-.08-.31.75.75,0,0,0-.29-.27h0c-.33-.17-.52.18-.76.39-.49,1-.61,1-1.12.3-.1-.13-.22-.19-.07-.42s.16-.21.32-.07c.33.3.64.18.91-.2a.83.83,0,0,0,.11-.64c-.44-.41-.94-.19-1.41-.22-.69,0,.44-.27,0-.29a2.19,2.19,0,0,0-.21-.46l-.17-.09a.76.76,0,0,0-.68-.42c-.7,0-.36,1.14-.86,1.41.45-.41.23-1.17.54-1.65-.07-.64-.36-.63-.75-.5a2.21,2.21,0,0,1-1.43.09c.23,0,.47,0,.71,0,.72.06.84-.18.75-1.24-.26-.32-.64-.42-.92-.69a1.22,1.22,0,0,0-.17.07c-.28.08-.56.24-.86.33a1.1,1.1,0,0,1-.32,0c-.31-.24-.27-.63-.29-1a3,3,0,0,0,0-.31,1.31,1.31,0,0,0-.28-.62c-.52-.27-1,.41-1.56-.06-.39.16-.65.68-1.11.57-.29-.14-.25-.59-.47-.8-.58-.4-.51.39-.72.68-.44-.09-.86-.39-1.32-.14-.26.42-.66.29-1,.4a2.52,2.52,0,0,0-.88,1,2.14,2.14,0,0,0-.09.27c-.12.35-.4.54-.53,1,0-.28.08-.44.07-.62a.6.6,0,0,0-.12-.28.62.62,0,0,0-.19,0c-.35-.23-.75-.33-1,0s-.09.86.05,1.27c0,.08,0,.14.07.21s.09.25,0,.26,0-.12-.08-.15c-.17-.56-.44-.93-.94-.81-.45.44-.84,1.2-1.52.53-.37,0-.18-.77-.59-.68-.14.25-.28.36-.43.36a.65.65,0,0,1-.46-.3l-.35-.2c-.23,0-.3.28-.37.5-.21.47-.36.05-.53,0a.49.49,0,0,0-.22-.1c-.18,0-.37,0-.5-.25s0-.46.1-.52,0,0,0,0c-.2-.14-.38,0-.55.1l-.15,0c0-.09.14-.09.19-.2a1.21,1.21,0,0,0-.81-1.26,2.76,2.76,0,0,1-.49-.32c-.28-.55-.72-.56-1.16-.64-.35.16-.44-.33-.65-.48h-.06c-.31.17-.64,0-.94.23-.13-.23-.25-.47-.38-.71-.54-.34-.71,0-.65.67-.29,0-.24-.57-.54-.63-.81.12-1.7-.37-2.42.49-.22.13,0,.47-.19.63-.48.52-.67-.43-1.11-.37s-.67-.24-1-.39c-.37.12-.24.44-.19.75,0,.78,0,.78-.88.26-.5,0-.65-.73-1.09-.84-.27,0-.56-.09-.81.1-.35-.12-.48-.7-.88-.74a1.1,1.1,0,0,0-.51,0,.48.48,0,0,1-.35-.15c-.3,0-.58.37-.88,0v0c-.14-.13-.32-.22-.36-.48a14.75,14.75,0,0,0-4.36-2.26c-.14.07-.33,0-.38.3,0,.09,0-.05,0-.05-.3-.84-1.1-.68-1.5-1.3a3.77,3.77,0,0,0-.17-.35c-.32-.31-.73,0-1.07-.23a.36.36,0,0,1-.46-.19c-.35-.77-.82-.52-1.25-.23s-.6.38-.9,0a.55.55,0,0,0-.43.13,5.92,5.92,0,0,0-.67.48,1.75,1.75,0,0,1-.28.39c-.18.06-.32,0-.45-.22s-.36-.48-.58-.73c-.08-.54-.41-.62-.58-.3s-.54.19-.68.52a.39.39,0,0,0,0,.28,1,1,0,0,1,.24.41c-.32.11-.54-.62-.9-.2s-.77.81-1.22.13a.51.51,0,0,0-.41-.35A4.1,4.1,0,0,1,130,1.37c-.58-.49-1.2-.38-1.81-.48a1.36,1.36,0,0,0-1.16.24c-.11.17-.24.32-.36.5s.32.51.14.64c-.56.42-.15-.41-.34-.53s-.42,0-.62-.11a.44.44,0,0,0-.25.06.84.84,0,0,0-.19.88,8.93,8.93,0,0,1-.09,1.05c0-.29,0-.58,0-.87a.64.64,0,0,0-.36-.56.3.3,0,0,0-.22-.05,1.38,1.38,0,0,1-.67,0,.55.55,0,0,0-.5.38,1.34,1.34,0,0,0,0,.63c0,.2.19.47.08.6s-.14-.22-.23-.31a.61.61,0,0,0-.18-.18,1.62,1.62,0,0,0-.19,0,1.59,1.59,0,0,0-1.46-.47c-1.33.4-2.65.91-4,1.33-.36.1-.78-.07-1,.43-.23.24-.63,0-.85.31l-.14-.22c-.34-.34-.61-.19-.86.16s-.29,0-.4-.07l0,0,0,0a.43.43,0,0,0,.17,0,.6.6,0,0,0,.27-.69c-.22-.36-.47.08-.71-.05a4.11,4.11,0,0,0-2.43-1.33c-.28,0-.57,0-.76-.32s-.59-.16-.83-.41c-.2-.5-.58-.34-.9-.44C108,1,106.79.46,105.57,0c-.55-.18-1,.2-1.48.64-.23.39.16,1.21-.51,1.31l-.22.09c-.27,0-.13.61-.44.56-.43.13-.49.68-.75,1-.54,0-.28-.86-.65-1a.9.9,0,0,0-.22-.14c-.4-.15-.67-.34-.25-.9s.4-.81-.24-.72l-.24.23c-.14.21-.43.1-.51.44v0c-.08.58-.75.83-.49,1.58a.86.86,0,0,0,.14.25,1.71,1.71,0,0,1,.71,1.48.25.25,0,0,1,0,.09c-.15,0-.32-.07-.5-.11,0,0,0,0-.06,0h-.12a6,6,0,0,0-1-.06c-1,0-1.95.08-2.9,0a5.27,5.27,0,0,0-.57,0h0l-.3,0c-.27-.38-.57.2-.84,0-.07-.26-.22-.21-.36-.21a.75.75,0,0,0-.16.6.29.29,0,0,0-.18.12,1.27,1.27,0,0,0-.28-.24c.14-.27-.06-.51-1-.69a7.35,7.35,0,0,0-1.08-.07c-.87.11-1.78,0-2.64.12s.91.95-1.52.53c-.78-.13,1.21-.34.61-.65S86.44,4,86,3.82a23,23,0,0,0-5-.24,52.64,52.64,0,0,0-7.8.47A59.49,59.49,0,0,1,60.57,5.23a4.36,4.36,0,0,0-1.82.35,7.61,7.61,0,0,1-4.55.07c-.06-.06-.11-.13-.17-.2-.36-.43-.58.31-.9.19a1.07,1.07,0,0,1,.24-.4.45.45,0,0,0,0-.28c-.15-.33-.49-.16-.69-.52s-.5-.24-.58.3c-.22.24-.42.51-.58.72s-.27.28-.45.23a1.49,1.49,0,0,1-.28-.41c-.21-.2-.45-.28-.67-.46a.48.48,0,0,0-.43-.13c-.29.4-.56.25-.9,0s-.9-.53-1.25.24a.35.35,0,0,1-.46.18c-.34.28-.75-.07-1.07.24,0,.1-.12.23-.17.35-.4.62-1.2.46-1.49,1.3,0,0,0,.14-.06.05,0-.28-.24-.23-.38-.31A14.67,14.67,0,0,0,39.57,9c0,.26-.22.34-.36.47-.28.33-.55,0-.83,0h0c-.26.28-.6,0-.87.18s-.53.61-.87.74c-.26-.19-.54-.06-.82-.1-.43.1-.59.86-1.09.84-.83.51-.83.51-.88-.26.05-.31.18-.63-.19-.75-.34.14-.68.43-1,.39s-.63.89-1.1.37c-.16-.16,0-.5-.2-.63-.72-.86-1.61-.37-2.42-.49-.3,0-.24.58-.54.63.06-.71-.1-1-.64-.68q-.2.38-.39.72c-.3-.19-.63-.06-.94-.23h0c-.22.14-.31.63-.66.46-.44.09-.88.1-1.16.66-.49.45-1.31.4-1.3,1.57,0,.12.15.12.19.21l-.15,0c-.17-.13-.35-.25-.54-.1-.35.42-.4,1.23-1,1.28a1.93,1.93,0,0,1-.88.61,4.83,4.83,0,0,1-1.6-.17,3.38,3.38,0,0,0-1.18.08c-.1.2-.22.38-.32.57-.31.67.07.89.41,1.17a.31.31,0,0,0,.35-.24c0,.25-.13.3-.29.3s-.2.13-.24.27-.07.37-.22.44c-.39.12-.7.67-1.16.43h-.23c-.07.05-.14.08-.21.14-.31.21-.53.7-.94.55-.41,0-.6.38-.72.86-.12.77-.37-.18-.53.08a.33.33,0,0,0-.19.32.35.35,0,0,1-.07.21.77.77,0,0,0,.11.64c.27.69-.12.8-.4.61-.56-.35-1,0-1.45.23a2,2,0,0,1-.74.84c-.12.3-.54.2-.52.7s-.1.54-.37.36-.52,0-.67.33a1,1,0,0,0-.12.27c-.06.33,0,.77-.44.71a1.15,1.15,0,0,0-.87.29c-.25.27-.49.5-.84.35-.64.32-1,1.38-1.89,1.08-.09,0-.27.27-.38.43a2.43,2.43,0,0,1-.9.8c-.26.15-.22.83-.67.68-.17.24-.21.68-.61.51-.21-.08-.42,0-.45.43-.2.2-.54,0-.7.39l0,.1c-.3.27-.24.6-.11,1,.06.23.25.47,0,.68a1.16,1.16,0,0,0-.52.6,1.38,1.38,0,0,0-.08.45c0,.31.14.69-.2.87a.76.76,0,0,0-.67.75L0,34.2a.28.28,0,0,0,0,.29,1.31,1.31,0,0,1,.68,1.08c0,.31.16.57.44.62A.35.35,0,0,0,1.47,36c0-.39.38-.62.34-1.06,0,0,0,0,0,0a4.72,4.72,0,0,0,0,.92c.11.62.16,1.12-.58,1-.46-.09-.76.34-.69,1a.56.56,0,0,0,0,.69A1.52,1.52,0,0,1,.72,39a.67.67,0,0,0,.7.54c.26,0,.55.08.4.47a11.39,11.39,0,0,0-.21,1.91,2.79,2.79,0,0,1-.49,1.15.73.73,0,0,0,0,.58c.36-.22.57,0,.63.46-.18.21.48.52-.1.77-.31.13-.09.94.34,1.1A1.55,1.55,0,0,1,2,45.75c.41-.05.63-.56,1-.68.16.08.28.26.45.35s.23.12.16.33-.09.49.12.65c.39-.14.44.67.82.52.08.33.74.17.42.84.14.61-.3.54-.48.76a1.43,1.43,0,0,0-.1.79,1.94,1.94,0,0,0,.07.31.83.83,0,0,0,.29.27v0c.33.17.53-.17.76-.38.49-1,.62-1,1.12-.3.1.13.22.18.08.4s-.17.23-.33.09c-.33-.31-.64-.18-.91.19a.86.86,0,0,0-.1.65c.43.41.94.18,1.4.22.7,0-.44.26,0,.28a1.83,1.83,0,0,0,.2.46l.17.1a.76.76,0,0,0,.68.42c.7-.05.36-1.16.87-1.41-.45.41-.24,1.16-.55,1.64.07.65.37.63.75.5a2.17,2.17,0,0,1,1.35-.1c-.2,0-.42,0-.63,0-.72-.07-.83.18-.74,1.23.25.33.63.43.91.7A.65.65,0,0,0,10,54.5c.28-.08.57-.23.86-.32a.85.85,0,0,1,.32,0c.31.25.27.63.29,1,0,.11,0,.19,0,.3a1.2,1.2,0,0,0,.29.62c.51.28,1-.41,1.56.07.38-.17.64-.69,1.1-.57.29.13.25.58.47.8.58.4.51-.4.72-.68.44.09.86.39,1.33.14.25-.42.65-.3,1-.4a2.64,2.64,0,0,0,.87-1,1.1,1.1,0,0,0,.09-.29c.12-.33.4-.53.53-1,0,.28-.08.44-.06.62a.57.57,0,0,0,.11.28l.2,0c.34.21.74.33,1,0s.09-.86-.05-1.27c0-.08,0-.15-.07-.21s-.09-.25-.05-.26,0,.12.08.14c.17.57.44.93.94.82.45-.44.84-1.21,1.52-.54.35,0,.2.7.53.7h.06c.27-.49.58-.44.89-.08l.35.22c.23,0,.3-.28.37-.5.21-.48.37-.05.53,0s.54,0,.72.35c0,1.23-.58,0-.81.33a.53.53,0,0,0-.23.51,7.19,7.19,0,0,0,.37,1,1.54,1.54,0,0,0,.24.35c.4.47.78.23,1.17,0,.33.24.28.43,0,.6a1.21,1.21,0,0,0-.63.4,1.89,1.89,0,0,0-.16.62,3.76,3.76,0,0,0,0,.82c.27.37.47,1,1,.42.16-.17.31-.34.47-.5.46.15.82.7,1.35.58.32.06.55.41.86.5s.38-.15.38-.5c0-.19-.25-.4,0-.63s.47-.05.56.36a.75.75,0,0,0,.62.6c.27.18.43-.13.63-.26a2.13,2.13,0,0,1,.94-.49,1.12,1.12,0,0,0,.53-.48c.05,0,.07-.25.18-.1a2.48,2.48,0,0,0,.25.58c.09.1.19.17.31.12.28-.21.16-.79.5-1l0,0,0-.06a1.46,1.46,0,0,0,.7-1.15.78.78,0,0,0,.5.7c.35.11.54-.13.54-.62,0-.26,0-.57.3-.33a.44.44,0,0,0,.26.24.28.28,0,0,0,.18-.16c.14-.26.2-.64.53-.66.64,0,.06-1.14.65-1.19.2.3.2.78.49,1,.14.12.33.05.48.11.26-.11.41.22.64.26s.22.17.33,0c0-.46-.93-.54-.34-1.26-.17-.84.22-.1.32-.2s.16,0,.22-.12c.39-.92.92-.29,1.39-.25.29,0,.51-.27.76-.34s.46-.37.55-.69a13.83,13.83,0,0,0,4.3,2.24c.14-.08.33,0,.38-.31,0-.09,0,.06.06.05.29.84,1.09.68,1.49,1.3,0,.12.12.25.17.35.32.31.73,0,1.07.24a.35.35,0,0,1,.46.18c.35.77.83.52,1.25.24s.61-.39.9,0a.48.48,0,0,0,.43-.13,7.39,7.39,0,0,0,.67-.47,1.6,1.6,0,0,1,.28-.4c.18,0,.32.05.45.23s.36.48.58.72c.08.54.42.62.58.3s.54-.19.69-.52a.45.45,0,0,0,0-.28,1.07,1.07,0,0,1-.24-.4c.32-.12.54.62.9.19.06-.07.11-.14.17-.2a7.61,7.61,0,0,1,4.55.07,4.36,4.36,0,0,0,1.82.35,58.84,58.84,0,0,1,12.57,1.18,52.64,52.64,0,0,0,7.8.47,23,23,0,0,0,5-.24c.47-.17,1-.32,1.56-.49s-1.39-.52-.61-.65c2.43-.42.65.43,1.52.53s1.77,0,2.64.12a7.35,7.35,0,0,0,1.08-.07c.92-.18,1.12-.42,1-.69a1.27,1.27,0,0,0,.28-.24.29.29,0,0,0,.18.12.76.76,0,0,0,.16.6c.14,0,.29.06.36-.21.27-.22.57.36.84,0l.3,0h0a5.27,5.27,0,0,0,.57,0c1-.07,1.9,0,2.9,0a6,6,0,0,0,1-.06h.12s.06,0,.06,0c.18,0,.35-.06.5-.11s0,0,0,0l.15,0c.6,0,1.1.83,1.19,1.93.06-.29.08-.62.42-.61.26.35.32.89.75,1,.31,0,.17.53.44.56l.22.09c.67.1.28.92.51,1.31.44.44.93.82,1.48.64,1.22-.41,2.4-.91,3.61-1.33.32-.1.7.06.9-.44.24-.25.65,0,.83-.41s.48-.3.76-.32a4.11,4.11,0,0,0,2.43-1.33c.24-.13.49.31.71-.05a.6.6,0,0,0-.27-.69.43.43,0,0,0-.17,0l0,0,0,0c.11-.09.23-.33.4-.07s.52.5.86.16l.14-.22c.22.3.62.07.85.31.22.5.64.33,1,.43,1.34.42,2.66.93,4,1.33a1.59,1.59,0,0,0,1.46-.47,1.62,1.62,0,0,0,.19,0,.61.61,0,0,0,.18-.18c.09-.09.13-.43.23-.31s0,.4-.08.6a1.34,1.34,0,0,0,0,.63.55.55,0,0,0,.5.38,1.38,1.38,0,0,1,.67,0,.3.3,0,0,0,.22-.05.64.64,0,0,0,.36-.56c0-.28,0-.58,0-.87a8.92,8.92,0,0,1,.09,1.05.84.84,0,0,0,.19.88.44.44,0,0,0,.25.06c.2-.1.41,0,.62-.11s-.22-1,.34-.53c.18.13-.28.33-.14.64s.25.33.36.5a1.36,1.36,0,0,0,1.16.24c.61-.1,1.23,0,1.81-.48a4,4,0,0,1,2.9-1.16.54.54,0,0,0,.41-.36c.45-.68.84-.36,1.22.13s.58-.31.9-.2a1.06,1.06,0,0,1-.24.41.39.39,0,0,0,0,.28c.14.33.49.15.68.52s.5.24.58-.3c.22-.25.42-.52.58-.74s.27-.27.45-.21a1.75,1.75,0,0,1,.28.39,5.91,5.91,0,0,0,.67.48.52.52,0,0,0,.43.13c.3-.4.57-.25.9,0s.9.54,1.25-.23a.36.36,0,0,1,.46-.19c.34-.27.75.08,1.07-.23.06-.12.12-.23.17-.35.4-.62,1.2-.46,1.5-1.3,0,0,0-.14,0-.05,0,.28.24.23.38.3a14.75,14.75,0,0,0,4.36-2.26c0-.26.22-.35.36-.48v0c.3-.35.58,0,.88,0a.48.48,0,0,1,.35-.15,1.1,1.1,0,0,0,.51,0c.4,0,.53-.62.88-.74.25.19.54.06.81.1.44-.11.59-.87,1.09-.84.83-.52.83-.52.88.26,0,.31-.18.64.19.75.34-.15.69-.42,1-.39s.63-.89,1.11-.37c.15.16,0,.5.19.63.72.86,1.61.37,2.42.49.3-.06.25-.59.54-.63-.06.7.11,1,.65.67.13-.24.25-.48.38-.71.3.2.63.06.94.23H166c.21-.15.3-.64.65-.48.44-.08.88-.09,1.16-.64.49-.46,1.32-.41,1.3-1.58,0-.11-.15-.11-.19-.2l.15,0,.11.09a.83.83,0,0,0,.08-.22c0-.18-.06-.34-.07-.62a3.11,3.11,0,0,0,.44.82.61.61,0,0,1,.09.2,2.15,2.15,0,0,0,.09.27,2.43,2.43,0,0,0,.88,1c.32.12.72,0,1,.41.46.25.88-.05,1.32-.14.21.29.14,1.08.72.68.22-.21.18-.66.47-.8.46-.11.72.41,1.11.57.51-.46,1,.21,1.56-.06a1.31,1.31,0,0,0,.28-.62,3,3,0,0,0,0-.31c0-.37,0-.76.29-1a1.1,1.1,0,0,1,.32,0c.3.09.58.25.86.33a1.22,1.22,0,0,0,.17.07c.28-.27.66-.37.92-.69.09-1.06,0-1.3-.75-1.24-.24,0-.48,0-.71,0a2.21,2.21,0,0,1,1.43.09c.39.13.68.14.75-.5-.31-.48-.09-1.24-.54-1.65.5.27.16,1.37.86,1.41a.76.76,0,0,0,.68-.42l.17-.09a2.18,2.18,0,0,0,.21-.46c.46,0-.67-.25,0-.29.47,0,1,.19,1.41-.22a.83.83,0,0,0-.11-.64c-.27-.38-.58-.5-.91-.2-.16.14-.21.12-.32-.07s0-.29.07-.42c.51-.69.63-.66,1.12.3.24.21.43.56.76.39h0a.75.75,0,0,0,.29-.27,1.57,1.57,0,0,0,.08-.31,1.46,1.46,0,0,0-.11-.78c-.18-.22-.62-.16-.47-.76-.33-.66.33-.51.41-.84.38.14.44-.67.82-.53.21-.16.18-.39.12-.64s0-.31.17-.34.28-.27.45-.35c.38.12.6.64,1,.68q0,.1.06.24c.42-.17.64-1,.33-1.11-.58-.24.08-.56-.1-.76.06-.49.27-.68.63-.45a.71.71,0,0,0,0-.59,2.91,2.91,0,0,1-.49-1.15c-.08-.42,0-.85-.08-1.28a1.35,1.35,0,0,0,.31-.4,2.55,2.55,0,0,1,.9-.81c.26-.14.22-.83.67-.67.17-.24.21-.68.61-.52.22.08.42-.05.45-.42.2-.2.54,0,.71-.39l0-.1c.3-.27.25-.61.12-1s-.26-.48,0-.68a1.09,1.09,0,0,0,.51-.61,1.27,1.27,0,0,0,.08-.44c0-.31-.14-.69.21-.87a.79.79,0,0,0,.67-.75l.15-.26A.26.26,0,0,0,192.25,29.77ZM1.78,34.86c0-.1,0-.18.07-.24A.2.2,0,0,0,1.78,34.86Zm8.87,18a1.09,1.09,0,0,1-.11-.1,1.29,1.29,0,0,1,.16.09c.1.08.2,0,.31,0A.29.29,0,0,1,10.65,52.81Zm179.8-23.17a.23.23,0,0,0,.06-.25C190.55,29.49,190.57,29.57,190.45,29.64Z"/></g></g></svg>